<svg width="78" height="75" viewBox="0 0 78 75" fill="none" xmlns="http://www.w3.org/2000/svg">
    <path fill-rule="evenodd" clip-rule="evenodd"
          d="M78 63.75C78 69.9632 72.7617 75 66.3 75H11.7C5.23827 75 0 69.9632 0 63.75V11.25C0 5.0368 5.23827 0 11.7 0H27.302C29.4548 0 31.2 1.67809 31.2 3.74813C31.2 5.81828 29.4549 7.49659 27.302 7.497L11.7 7.5C9.54609 7.5 7.8 9.17893 7.8 11.25V61.0425L24.1264 39.0704C25.3507 37.4224 27.688 37.0264 29.4108 38.0962L29.7967 38.3692L49.8615 54.4425L55.255 46.6699C56.5292 44.8322 59.138 44.4693 60.895 45.7896L61.2577 46.0984L70.2 54.6937V48.75C70.2 46.6789 71.9461 45 74.1 45C76.2539 45 78 46.6789 78 48.75V63.75ZM28.0293 46.7175L12.5892 67.5H66.3C67.9727 67.5 69.3995 66.4874 69.9535 65.0649L59.1045 54.6375L53.945 62.0801C52.7448 63.8113 50.3347 64.2516 48.5707 63.1423L48.2033 62.8808L28.0293 46.7175ZM58.5 0C60.6539 0 62.4 1.67893 62.4 3.75V15H74.1C76.2539 15 78 16.6789 78 18.75C78 20.8211 76.2539 22.5 74.1 22.5H62.4V33.75C62.4 35.8211 60.6539 37.5 58.5 37.5C56.3461 37.5 54.6 35.8211 54.6 33.75V22.5H42.9C40.7461 22.5 39 20.8211 39 18.75C39 16.6789 40.7461 15 42.9 15H54.6V3.75C54.6 1.67893 56.3461 0 58.5 0ZM23.4 15C27.7078 15 31.2 18.3579 31.2 22.5C31.2 26.6421 27.7078 30 23.4 30C19.0922 30 15.6 26.6421 15.6 22.5C15.6 18.3579 19.0922 15 23.4 15Z"
          fill="#C0C0C0"/>
</svg>
