<svg width="19" height="16" viewBox="0 0 19 16" fill="none" xmlns="http://www.w3.org/2000/svg">
    <path fill-rule="evenodd" clip-rule="evenodd"
          d="M7.125 0.497582L9.5 1.53108L11.875 0.497582C13.3996 -0.165861 15.1004 -0.165861 16.625 0.497582L18.4028 1.27121C18.7635 1.42816 19 1.80819 19 2.23079V14.4735C19 15.0443 18.5747 15.507 18.05 15.507C17.9291 15.507 17.8094 15.4819 17.6972 15.4331L16.625 14.9665C15.1004 14.3031 13.3996 14.3031 11.875 14.9665L9.5 16L7.125 14.9665C5.60039 14.3031 3.89961 14.3031 2.375 14.9665L1.30282 15.4331C0.815677 15.6451 0.262805 15.3873 0.0679473 14.8573C0.0230616 14.7352 0 14.605 0 14.4735V2.23079C0 1.80819 0.236503 1.42816 0.597179 1.27121L2.375 0.497582C3.89961 -0.165861 5.60039 -0.165861 7.125 0.497582ZM3.10088 2.34587L1.9 2.86844V13.0141C3.82415 12.254 5.94465 12.2887 7.85088 13.1182L8.55 13.422V3.282L6.39912 2.34587C5.33935 1.88471 4.16065 1.88471 3.10088 2.34587ZM12.6009 2.34587L10.45 3.281V13.422L11.1491 13.1182C13.0553 12.2887 15.1758 12.254 17.1 13.0141V2.86844L15.8991 2.34587C14.8394 1.88471 13.6606 1.88471 12.6009 2.34587Z"
          fill="black"/>
</svg>
