<svg width="22" height="22" viewBox="0 0 22 22" fill="none" xmlns="http://www.w3.org/2000/svg">
    <path fill-rule="evenodd" clip-rule="evenodd"
          d="M11 0C17.0751 0 22 4.92487 22 11C22 17.0751 17.0751 22 11 22C4.92487 22 0 17.0751 0 11C0 4.92487 4.92487 0 11 0ZM11 2.2C6.13989 2.2 2.2 6.13989 2.2 11C2.2 15.8601 6.13989 19.8 11 19.8C15.8601 19.8 19.8 15.8601 19.8 11C19.8 6.13989 15.8601 2.2 11 2.2ZM11 15.4C11.6075 15.4 12.1 15.8925 12.1 16.5C12.1 17.1075 11.6075 17.6 11 17.6C10.3925 17.6 9.9 17.1075 9.9 16.5C9.9 15.8925 10.3925 15.4 11 15.4ZM11 4.4C11.6075 4.4 12.1 4.89249 12.1 5.5V12.1C12.1 12.7075 11.6075 13.2 11 13.2C10.3925 13.2 9.9 12.7075 9.9 12.1V5.5C9.9 4.89249 10.3925 4.4 11 4.4Z"
          fill="#8A8A8A"/>
</svg>
