<svg width="14" height="16" viewBox="0 0 14 16" fill="none" xmlns="http://www.w3.org/2000/svg">
<path fill-rule="evenodd" clip-rule="evenodd" d="M7.77778 0C7.98406 0 8.18189 0.0842854 8.32775 0.234315L12.2166 4.23431C12.3625 4.38434 12.4444 4.58783 12.4444 4.8V5.6C12.4444 6.04183 12.0962 6.4 11.6667 6.4H7C6.60113 6.4 6.27238 6.09117 6.22746 5.6933L6.22222 5.6L6.22144 1.6H2.33333C1.90378 1.6 1.55556 1.95817 1.55556 2.4V13.6C1.55556 14.0418 1.90378 14.4 2.33333 14.4H3.88889C4.31844 14.4 4.66667 14.7582 4.66667 15.2C4.66667 15.6418 4.31844 16 3.88889 16H2.33333C1.04467 16 0 14.9255 0 13.6V2.4C0 1.07452 1.04467 0 2.33333 0H7.77778ZM10.3389 8.23431C10.6193 7.94593 11.0605 7.92374 11.3656 8.16776L11.4389 8.23431L13.7722 10.6343C14.0526 10.9227 14.0741 11.3765 13.8369 11.6903L13.7722 11.7657L9.88331 15.7657C9.76175 15.8907 9.60411 15.9701 9.43557 15.9931L9.33333 16H7C6.60113 16 6.27238 15.6912 6.22746 15.2933L6.22222 15.2V12.8C6.22222 12.6232 6.27913 12.4524 6.38251 12.3136L6.45003 12.2343L10.3389 8.23431ZM10.8889 9.93137L7.77778 13.1314V14.4H9.01117L12.1223 11.2L10.8889 9.93137ZM7.777 1.9312L7.77778 4.8H10.5669L7.777 1.9312Z" fill="black"/>
</svg>
