<svg width="15" height="16" viewBox="0 0 15 16" fill="none" xmlns="http://www.w3.org/2000/svg">
<path fill-rule="evenodd" clip-rule="evenodd" d="M4.16667 0C4.6269 0 5 0.358172 5 0.8V15.2C5 15.6418 4.6269 16 4.16667 16C3.70643 16 3.33333 15.6418 3.33333 15.2V0.8C3.33333 0.358172 3.70643 0 4.16667 0ZM14.1667 1.6C14.6269 1.6 15 1.95817 15 2.4V13.6C15 14.0418 14.6269 14.4 14.1667 14.4C13.7064 14.4 13.3333 14.0418 13.3333 13.6V2.4C13.3333 1.95817 13.7064 1.6 14.1667 1.6ZM7.5 3.2C7.96024 3.2 8.33333 3.55817 8.33333 4V12C8.33333 12.4418 7.96024 12.8 7.5 12.8C7.03976 12.8 6.66667 12.4418 6.66667 12V4C6.66667 3.55817 7.03976 3.2 7.5 3.2ZM0.833333 5.6C1.29357 5.6 1.66667 5.95817 1.66667 6.4V9.6C1.66667 10.0418 1.29357 10.4 0.833333 10.4C0.373096 10.4 0 10.0418 0 9.6V6.4C0 5.95817 0.373096 5.6 0.833333 5.6ZM10.8333 6.4C11.2936 6.4 11.6667 6.75817 11.6667 7.2V8.8C11.6667 9.24183 11.2936 9.6 10.8333 9.6C10.3731 9.6 10 9.24183 10 8.8V7.2C10 6.75817 10.3731 6.4 10.8333 6.4Z" fill="black"/>
</svg>
