<svg width="13" height="16" viewBox="0 0 13 16" fill="none" xmlns="http://www.w3.org/2000/svg">
<path fill-rule="evenodd" clip-rule="evenodd" d="M8.125 0C8.34049 0 8.54715 0.0842854 8.69952 0.234315L12.762 4.23431C12.9144 4.38434 13 4.58783 13 4.8V13.6C13 14.9255 11.9087 16 10.5625 16H2.4375C1.09131 16 0 14.9255 0 13.6V2.4C0 1.07452 1.09131 0 2.4375 0H8.125ZM6.49919 1.6H2.4375C1.98877 1.6 1.625 1.95817 1.625 2.4V13.6C1.625 14.0418 1.98877 14.4 2.4375 14.4H10.5625C11.0112 14.4 11.375 14.0418 11.375 13.6V6.4H7.3125C6.89582 6.4 6.5524 6.09117 6.50547 5.6933L6.5 5.6L6.49919 1.6ZM11.0386 4.8L8.12419 1.9312L8.125 4.8H11.0386Z" fill="black"/>
</svg>
