<svg width="16" height="16" viewBox="0 0 16 16" fill="none" xmlns="http://www.w3.org/2000/svg">
<path fill-rule="evenodd" clip-rule="evenodd" d="M7.11806 0H8.81606C8.8674 0.00238311 8.91249 0.00825559 8.9758 0.0220426C9.44016 0.123165 9.6167 0.289918 10.0489 1.3112L10.1193 1.47967L10.3909 2.15268L10.4132 2.16186L10.7631 2.00344C11.5252 1.66261 11.9181 1.51905 12.1823 1.47899L12.237 1.47196L12.3367 1.46658C12.5746 1.46658 12.8168 1.55083 13.0022 1.69753L13.0899 1.77598L14.1755 2.85712L14.2509 2.93689C14.5919 3.31254 14.6237 3.57887 14.2466 4.5495L14.1211 4.86264L13.8252 5.56267L13.8308 5.57634L14.5085 5.82944L14.8352 5.95857C15.6792 6.30366 15.8526 6.48758 15.9654 6.91005C15.9882 6.99524 15.9962 7.05327 15.9989 7.12531L16 7.20354V8.72987C16 8.83837 15.9963 8.89965 15.9696 9.00689C15.8573 9.45789 15.6906 9.62963 14.6764 10.0581L14.5091 10.128L13.8408 10.3977L13.8361 10.4089L14.0778 10.9369C14.6787 12.2726 14.6997 12.5654 14.3047 13.0053L14.2553 13.0589L13.141 14.1725C12.9415 14.3742 12.6573 14.4852 12.3823 14.4852C12.1488 14.4852 11.782 14.3742 11.1567 14.1234L10.822 13.9863L10.4407 13.825L10.4189 13.834L10.2219 14.3625C9.7395 15.6334 9.57425 15.8398 9.07871 15.9677C9.0055 15.9866 8.95312 15.9946 8.89365 15.9979L8.79563 16H7.2685C7.17319 16 7.1194 15.9971 7.02474 15.9766C6.56056 15.876 6.38331 15.7089 5.9503 14.687L5.87973 14.5184L5.60768 13.845L5.58675 13.8364L5.07852 14.0649C4.2656 14.4228 3.91343 14.5317 3.66245 14.5317C3.42741 14.5317 3.18806 14.4491 2.99767 14.301L2.90679 14.2216L1.82275 13.1389L1.69895 13.0039C1.40167 12.654 1.38705 12.3828 1.75195 11.4491L1.9421 10.9817L2.17422 10.436L2.16937 10.4243L1.64387 10.2284C0.589668 9.82835 0.264784 9.64408 0.110398 9.30765L0.0686388 9.20179L0.0337561 9.08459C0.0140181 9.00967 0.00559478 8.95599 0.00217228 8.8949L0 8.79415V7.26691C0 7.15756 0.00379034 7.09574 0.0310177 6.98759C0.132529 6.58436 0.276609 6.40527 1.03557 6.06515L1.35013 5.9293L2.15786 5.60263L2.1634 5.58917L1.8614 4.92277C1.36307 3.79077 1.32179 3.4461 1.6362 3.06115L1.67922 3.01064L1.78109 2.90266L2.86093 1.82516C3.05877 1.62621 3.34176 1.51405 3.6172 1.51405C3.8142 1.51405 4.10347 1.59201 4.56644 1.76737L5.03221 1.95203L5.56023 2.17335L5.58187 2.16434L5.78039 1.63244C6.26724 0.352327 6.44103 0.138251 6.95457 0.0232795C7.01935 0.00877677 7.06556 0.00259311 7.11806 0ZM8.4184 1.59864H7.52646L7.40069 1.89349C7.35294 2.01071 7.29907 2.14763 7.23822 2.30655L6.95945 3.05232C6.8926 3.22889 6.76589 3.37513 6.603 3.46659L6.51865 3.50765L5.86336 3.78036C5.69792 3.84921 5.51518 3.86014 5.34432 3.81325L5.24346 3.77817L4.4682 3.45136L4.04944 3.28436L3.76798 3.18046L3.13581 3.81126L3.21021 3.9992C3.23929 4.06999 3.27275 4.14914 3.31091 4.23731L3.43976 4.52955L3.76293 5.2361C3.84034 5.40435 3.85652 5.59312 3.81082 5.77031L3.77597 5.87498L3.50802 6.52618C3.43708 6.69859 3.3086 6.83987 3.14594 6.927L3.06187 6.96594L2.1918 7.31572L1.75687 7.50217L1.6 7.57482V8.47903L1.78771 8.56042C1.85877 8.59014 1.93857 8.62255 2.02782 8.65791L2.32463 8.7731L3.04586 9.04096C3.22769 9.10652 3.37857 9.23524 3.47215 9.40195L3.51404 9.48836L3.78203 10.1377C3.85084 10.3044 3.86092 10.4884 3.81253 10.6601L3.77648 10.7613L3.46545 11.4912L3.2704 11.9727L3.17537 12.2284L3.80758 12.8599L3.99583 12.7855C4.06517 12.7572 4.14116 12.7255 4.224 12.6902L4.80468 12.4341L5.22344 12.2413C5.39868 12.1576 5.5973 12.1409 5.78237 12.1923L5.8736 12.2237L6.53275 12.4958C6.70746 12.568 6.85001 12.6992 6.93659 12.865L6.9751 12.9507L7.13914 13.3646L7.37257 13.9323L7.50767 14.2425L7.58092 14.3998H8.47551L8.60326 14.0987L8.76965 13.6737L9.04059 12.9472C9.1074 12.7691 9.23506 12.6216 9.39937 12.5298L9.48446 12.4886L10.1408 12.2177C10.3043 12.1503 10.4846 12.1392 10.6536 12.1846L10.7534 12.2187L11.3714 12.4808L11.8225 12.6646L12.0694 12.7598L12.2323 12.8188L12.8652 12.1869L12.7432 11.8859L12.5603 11.4686L12.2365 10.7626C12.1588 10.5941 12.1425 10.4049 12.1884 10.2274L12.2234 10.1225L12.4909 9.47413C12.5615 9.30306 12.6888 9.16266 12.8499 9.07551L12.9332 9.03648L13.6701 8.74023L14.0463 8.58253L14.1497 8.53755L14.4 8.42302V7.51969L14.1491 7.41257L13.8092 7.27805L12.9513 6.95866C12.7699 6.89264 12.6195 6.76369 12.5264 6.59697L12.4847 6.51057L12.2172 5.85866C12.1489 5.69234 12.1391 5.50892 12.1873 5.33783L12.2232 5.2369L12.4716 4.65613C12.5362 4.50254 12.5925 4.36635 12.6411 4.24597L12.7283 4.02584L12.8232 3.76861L12.1907 3.13864L12.0023 3.21318C11.8982 3.25566 11.7788 3.30608 11.6434 3.36496L11.5026 3.42667L10.7643 3.76156C10.5963 3.83853 10.408 3.85454 10.2313 3.80895L10.1269 3.77421L9.46815 3.50341C9.29572 3.43252 9.1544 3.30407 9.06722 3.14141L9.02825 3.05734L8.79534 2.47457L8.62656 2.0663L8.53307 1.84917L8.4184 1.59864ZM8.00038 4.79894C9.76529 4.79894 11.2 6.23349 11.2 7.99855C11.2 9.76372 9.76519 11.1995 8.00038 11.1995C6.23506 11.1995 4.8 9.76397 4.8 7.99855C4.8 6.23324 6.23495 4.79894 8.00038 4.79894ZM8.00038 6.39909C7.11841 6.39909 6.4 7.11718 6.4 7.99855C6.4 8.88033 7.11881 9.5994 8.00038 9.5994C8.88131 9.5994 9.6 8.8802 9.6 7.99855C9.6 7.1173 8.88171 6.39909 8.00038 6.39909Z" fill="black"/>
</svg>
